<svg width="336" height="464" viewBox="0 0 336 464" fill="none" xmlns="http://www.w3.org/2000/svg">
<g clip-path="url(#clip0_4885_478)">
<rect x="24" y="176" width="288" height="192" rx="96" fill="#DEDAD4" style="fill:#DEDAD4;fill:color(display-p3 0.8695 0.8533 0.8305);fill-opacity:1;"/>
<g clip-path="url(#clip1_4885_478)">
<mask id="mask0_4885_478" style="mask-type:luminance" maskUnits="userSpaceOnUse" x="24" y="176" width="288" height="192">
<rect x="24" y="368" width="192" height="288" rx="0.06" transform="rotate(-90 24 368)" fill="url(#paint0_radial_4885_478)" style=""/>
</mask>
<g mask="url(#mask0_4885_478)">
<rect x="24" y="176" width="288" height="192" fill="#FC6432" style="fill:#FC6432;fill:color(display-p3 0.9882 0.3922 0.1961);fill-opacity:1;"/>
</g>
</g>
<mask id="mask1_4885_478" style="mask-type:alpha" maskUnits="userSpaceOnUse" x="24" y="80" width="384" height="384">
<g clip-path="url(#clip2_4885_478)">
<circle cx="216" cy="272" r="936" transform="rotate(180 216 272)" stroke="white" style="stroke:white;stroke-opacity:1;" stroke-width="1.25"/>
<circle cx="216" cy="272" r="888" transform="rotate(180 216 272)" stroke="white" style="stroke:white;stroke-opacity:1;" stroke-width="1.25"/>
<circle cx="216" cy="272" r="840" transform="rotate(180 216 272)" stroke="white" style="stroke:white;stroke-opacity:1;" stroke-width="1.25"/>
<circle cx="216" cy="272" r="792" transform="rotate(180 216 272)" stroke="white" style="stroke:white;stroke-opacity:1;" stroke-width="1.25"/>
<circle cx="216" cy="272" r="744" transform="rotate(180 216 272)" stroke="white" style="stroke:white;stroke-opacity:1;" stroke-width="1.25"/>
<circle cx="216" cy="272" r="696" transform="rotate(180 216 272)" stroke="white" style="stroke:white;stroke-opacity:1;" stroke-width="1.25"/>
<circle cx="216" cy="272" r="648" transform="rotate(180 216 272)" stroke="white" style="stroke:white;stroke-opacity:1;" stroke-width="1.25"/>
<circle cx="216" cy="272" r="600" transform="rotate(180 216 272)" stroke="white" style="stroke:white;stroke-opacity:1;" stroke-width="1.25"/>
<circle cx="216" cy="272" r="552" transform="rotate(180 216 272)" stroke="white" style="stroke:white;stroke-opacity:1;" stroke-width="1.25"/>
<circle cx="216" cy="272" r="504" transform="rotate(180 216 272)" stroke="white" style="stroke:white;stroke-opacity:1;" stroke-width="1.25"/>
<circle cx="216" cy="272" r="456" transform="rotate(180 216 272)" stroke="white" style="stroke:white;stroke-opacity:1;" stroke-width="1.25"/>
<circle cx="216" cy="272" r="408" transform="rotate(180 216 272)" stroke="white" style="stroke:white;stroke-opacity:1;" stroke-width="1.25"/>
<circle cx="216" cy="272" r="360" transform="rotate(180 216 272)" stroke="white" style="stroke:white;stroke-opacity:1;" stroke-width="1.25"/>
<circle cx="216" cy="272" r="312" transform="rotate(180 216 272)" stroke="white" style="stroke:white;stroke-opacity:1;" stroke-width="1.25"/>
<circle cx="216" cy="272" r="264" transform="rotate(180 216 272)" stroke="white" style="stroke:white;stroke-opacity:1;" stroke-width="1.25"/>
<circle cx="216" cy="272" r="216" transform="rotate(180 216 272)" stroke="white" style="stroke:white;stroke-opacity:1;" stroke-width="1.25"/>
<circle cx="216" cy="272" r="168" transform="rotate(180 216 272)" stroke="white" style="stroke:white;stroke-opacity:1;" stroke-width="1.25"/>
<circle cx="216" cy="272" r="120" transform="rotate(180 216 272)" stroke="white" style="stroke:white;stroke-opacity:1;" stroke-width="1.25"/>
<circle cx="216" cy="272" r="72" transform="rotate(180 216 272)" stroke="white" style="stroke:white;stroke-opacity:1;" stroke-width="1.25"/>
<circle cx="216" cy="272" r="24" transform="rotate(180 216 272)" stroke="white" style="stroke:white;stroke-opacity:1;" stroke-width="1.25"/>
</g>
</mask>
<g mask="url(#mask1_4885_478)">
<mask id="mask2_4885_478" style="mask-type:luminance" maskUnits="userSpaceOnUse" x="24" y="80" width="384" height="384">
<rect x="408" y="464" width="384" height="384" rx="0.01" transform="rotate(180 408 464)" fill="url(#paint1_radial_4885_478)" style=""/>
</mask>
<g mask="url(#mask2_4885_478)">
<rect width="384" height="384" transform="matrix(-1 0 0 -1 408 464)" fill="#131416" fill-opacity="0.12" style="fill:#131416;fill:color(display-p3 0.0745 0.0784 0.0863);fill-opacity:0.12;"/>
</g>
</g>
<g filter="url(#filter0_ii_4885_478)">
<g clip-path="url(#clip3_4885_478)">
<mask id="mask3_4885_478" style="mask-type:luminance" maskUnits="userSpaceOnUse" x="24" y="176" width="192" height="192">
<rect width="192" height="192" rx="0.04" transform="matrix(1 0 0 -1 24 368)" fill="url(#paint2_linear_4885_478)" style=""/>
</mask>
<g mask="url(#mask3_4885_478)">
<rect width="192" height="192" transform="matrix(1 0 0 -1 24 368)" fill="#1A1B1E" style="fill:#1A1B1E;fill:color(display-p3 0.1023 0.1074 0.1177);fill-opacity:1;"/>
</g>
</g>
</g>
<g filter="url(#filter1_ii_4885_478)">
<g clip-path="url(#clip4_4885_478)">
<mask id="mask4_4885_478" style="mask-type:luminance" maskUnits="userSpaceOnUse" x="48" y="200" width="144" height="144">
<rect width="144" height="144" rx="0.04" transform="matrix(1 0 0 -1 48 344)" fill="url(#paint3_linear_4885_478)" style=""/>
</mask>
<g mask="url(#mask4_4885_478)">
<rect width="144" height="144" transform="matrix(1 0 0 -1 48 344)" fill="#131416" style="fill:#131416;fill:color(display-p3 0.0752 0.0800 0.0848);fill-opacity:1;"/>
</g>
</g>
</g>
<g filter="url(#filter2_ii_4885_478)">
<g clip-path="url(#clip5_4885_478)">
<mask id="mask5_4885_478" style="mask-type:luminance" maskUnits="userSpaceOnUse" x="72" y="224" width="96" height="96">
<rect width="96" height="96" rx="0.0266667" transform="matrix(1 0 0 -1 72 320)" fill="url(#paint4_linear_4885_478)" style=""/>
</mask>
<g mask="url(#mask5_4885_478)">
<rect width="96" height="96" transform="matrix(1 0 0 -1 72 320)" fill="#0A0A0B" style="fill:#0A0A0B;fill:color(display-p3 0.0380 0.0400 0.0420);fill-opacity:1;"/>
</g>
</g>
</g>
<path d="M133.747 274.867C133.6 274.781 133.673 274.572 133.846 274.584C138.412 275.113 140.825 270.301 141.514 268.024C144.185 259.174 135.113 255.272 132.184 254.263C131.692 254.091 131.433 253.561 131.581 253.069L133.723 245.967C133.883 245.45 133.587 244.908 133.07 244.748L131.113 244.158C130.596 243.998 130.055 244.293 129.895 244.81L127.753 251.9C127.593 252.417 127.051 252.7 126.534 252.552L121.906 251.161C121.389 251.001 121.106 250.46 121.254 249.943L123.396 242.853C123.556 242.336 123.26 241.794 122.743 241.634L120.786 241.044C120.269 240.884 119.728 241.179 119.568 241.696L117.426 248.786C117.266 249.303 116.725 249.586 116.208 249.438L113.894 248.736L107.407 246.779C106.89 246.619 106.348 246.915 106.188 247.432L105.499 249.721C105.339 250.238 105.635 250.78 106.152 250.94L111.333 252.503C111.85 252.663 112.133 253.204 111.986 253.721L103.222 282.806C103.062 283.323 102.521 283.606 102.004 283.459L97.511 282.105C97.0679 281.969 96.5878 282.166 96.3663 282.585L95.1108 284.985C94.8277 285.526 95.1108 286.191 95.6893 286.363L104.293 288.961C104.81 289.121 105.093 289.662 104.945 290.179L102.644 297.81C102.484 298.327 102.779 298.869 103.296 299.029L105.253 299.62C105.77 299.78 106.312 299.484 106.472 298.967L108.773 291.336C108.933 290.819 109.475 290.536 109.992 290.684L114.3 291.976C114.817 292.136 115.1 292.678 114.952 293.195L112.65 300.826C112.49 301.343 112.786 301.884 113.303 302.044L115.26 302.635C115.777 302.795 116.318 302.5 116.478 301.983L118.768 294.376C118.928 293.847 119.482 293.564 119.999 293.736C123.716 294.955 133.673 297.983 138.375 288.801C142.523 280.702 136.381 276.295 133.747 274.867ZM119.642 256.478C119.789 255.998 120.282 255.703 120.774 255.801C136.037 258.952 132.701 266.411 132.701 266.411C130.375 274.116 119.789 270.055 116.823 268.738C116.38 268.541 116.146 268.036 116.294 267.568L119.642 256.478ZM129.919 284.394C127.556 292.235 114.767 287.705 111.395 286.363C110.927 286.179 110.681 285.662 110.829 285.182L114.435 273.206C114.583 272.726 115.075 272.43 115.568 272.529C133.661 276.184 129.919 284.394 129.919 284.394Z" fill="white" style="fill:white;fill-opacity:1;"/>
</g>
<path d="M127.168 422.8H134.224V424.096H128.624V427.392H133.168V428.704H128.624V432.704H134.4V434H127.168V422.8ZM135.558 425.936H137.078L142.518 434H140.982L135.558 425.936ZM140.806 425.936H142.342L136.918 434H135.382L140.806 425.936ZM148.205 433.936C147.831 434.064 147.41 434.128 146.941 434.128C146.215 434.128 145.634 433.915 145.197 433.488C144.77 433.061 144.557 432.427 144.557 431.584V427.136H143.053V425.936H144.557V423.488H145.917V425.936H148.077V427.136H145.917V431.632C145.917 432.037 146.018 432.352 146.221 432.576C146.434 432.789 146.727 432.896 147.101 432.896C147.495 432.896 147.831 432.827 148.109 432.688L148.205 433.936ZM150.484 429.952C150.484 430.539 150.591 431.061 150.804 431.52C151.018 431.968 151.316 432.315 151.7 432.56C152.095 432.805 152.548 432.928 153.06 432.928C153.679 432.928 154.191 432.789 154.596 432.512C155.002 432.235 155.263 431.845 155.38 431.344L156.66 431.648C156.468 432.437 156.052 433.051 155.412 433.488C154.783 433.915 153.999 434.128 153.06 434.128C152.271 434.128 151.578 433.947 150.98 433.584C150.394 433.211 149.935 432.709 149.604 432.08C149.284 431.44 149.124 430.736 149.124 429.968C149.124 429.2 149.279 428.501 149.588 427.872C149.908 427.232 150.362 426.731 150.948 426.368C151.546 425.995 152.239 425.808 153.028 425.808C153.796 425.808 154.474 425.979 155.06 426.32C155.647 426.661 156.095 427.12 156.404 427.696C156.724 428.272 156.884 428.907 156.884 429.6C156.874 429.813 156.863 430.021 156.852 430.224H149.908V429.088H155.444C155.38 428.459 155.135 427.947 154.708 427.552C154.282 427.147 153.722 426.944 153.028 426.944C152.26 426.944 151.642 427.216 151.172 427.76C150.714 428.293 150.484 429.024 150.484 429.952ZM158.62 425.936H159.98V427.456C160.268 426.955 160.652 426.555 161.132 426.256C161.612 425.957 162.15 425.808 162.748 425.808C163.302 425.808 163.798 425.925 164.236 426.16C164.673 426.395 165.014 426.731 165.26 427.168C165.505 427.595 165.628 428.091 165.628 428.656V434H164.268V428.912C164.268 428.357 164.102 427.909 163.772 427.568C163.441 427.216 162.998 427.04 162.444 427.04C161.942 427.04 161.505 427.179 161.132 427.456C160.769 427.733 160.486 428.128 160.284 428.64C160.081 429.152 159.98 429.76 159.98 430.464V434H158.62V425.936ZM171.262 434.128C170.441 434.128 169.737 433.947 169.15 433.584C168.574 433.221 168.132 432.731 167.822 432.112C167.524 431.483 167.374 430.768 167.374 429.968C167.374 429.168 167.524 428.459 167.822 427.84C168.132 427.211 168.574 426.715 169.15 426.352C169.737 425.989 170.436 425.808 171.246 425.808C171.78 425.808 172.286 425.931 172.766 426.176C173.257 426.411 173.63 426.715 173.886 427.088V422.672H175.246V434H173.886V432.832C173.705 433.205 173.369 433.515 172.878 433.76C172.388 434.005 171.849 434.128 171.262 434.128ZM171.39 432.912C172.18 432.912 172.814 432.645 173.294 432.112C173.774 431.579 174.014 430.864 174.014 429.968C174.014 429.072 173.774 428.357 173.294 427.824C172.814 427.291 172.18 427.024 171.39 427.024C170.59 427.024 169.95 427.291 169.47 427.824C169.001 428.357 168.766 429.072 168.766 429.968C168.766 430.864 169.001 431.579 169.47 432.112C169.95 432.645 170.59 432.912 171.39 432.912ZM181.387 422.8H185.451C186.507 422.8 187.339 423.056 187.947 423.568C188.565 424.069 188.875 424.773 188.875 425.68C188.875 426.171 188.731 426.619 188.443 427.024C188.155 427.419 187.808 427.701 187.403 427.872C188.011 428.085 188.491 428.432 188.843 428.912C189.195 429.381 189.371 429.989 189.371 430.736C189.371 431.749 189.045 432.549 188.395 433.136C187.744 433.712 186.843 434 185.691 434H181.387V422.8ZM185.451 432.704C186.261 432.704 186.875 432.533 187.291 432.192C187.707 431.851 187.915 431.355 187.915 430.704C187.915 430.053 187.707 429.557 187.291 429.216C186.875 428.864 186.261 428.688 185.451 428.688H182.843V432.704H185.451ZM185.387 427.408C186.048 427.408 186.555 427.269 186.907 426.992C187.259 426.704 187.435 426.283 187.435 425.728C187.435 425.184 187.259 424.768 186.907 424.48C186.565 424.192 186.059 424.048 185.387 424.048H182.843V427.408H185.387ZM193.575 424.096H190.007V422.8H198.583V424.096H195.031V434H193.575V424.096ZM204.221 434.128C203.24 434.128 202.333 433.915 201.501 433.488C200.68 433.051 200.018 432.4 199.517 431.536C199.026 430.672 198.781 429.627 198.781 428.4C198.781 427.173 199.032 426.128 199.533 425.264C200.045 424.4 200.712 423.755 201.533 423.328C202.365 422.891 203.261 422.672 204.221 422.672C205.021 422.672 205.752 422.816 206.413 423.104C207.074 423.392 207.624 423.803 208.061 424.336C208.498 424.869 208.792 425.493 208.941 426.208L207.501 426.528C207.33 425.728 206.952 425.104 206.365 424.656C205.789 424.197 205.069 423.968 204.205 423.968C203.448 423.968 202.77 424.144 202.173 424.496C201.576 424.837 201.112 425.344 200.781 426.016C200.45 426.677 200.285 427.472 200.285 428.4C200.285 429.328 200.45 430.128 200.781 430.8C201.112 431.461 201.576 431.968 202.173 432.32C202.77 432.661 203.448 432.832 204.205 432.832C205.069 432.832 205.778 432.619 206.333 432.192C206.898 431.755 207.282 431.147 207.485 430.368L208.941 430.672C208.653 431.739 208.093 432.581 207.261 433.2C206.429 433.819 205.416 434.128 204.221 434.128Z" fill="#131416" fill-opacity="0.64" style="fill:#131416;fill:color(display-p3 0.0745 0.0784 0.0863);fill-opacity:0.64;"/>
<defs>
<filter id="filter0_ii_4885_478" x="24" y="176" width="192" height="194" filterUnits="userSpaceOnUse" color-interpolation-filters="sRGB">
<feFlood flood-opacity="0" result="BackgroundImageFix"/>
<feBlend mode="normal" in="SourceGraphic" in2="BackgroundImageFix" result="shape"/>
<feColorMatrix in="SourceAlpha" type="matrix" values="0 0 0 0 0 0 0 0 0 0 0 0 0 0 0 0 0 0 127 0" result="hardAlpha"/>
<feOffset dy="2"/>
<feGaussianBlur stdDeviation="16"/>
<feComposite in2="hardAlpha" operator="arithmetic" k2="-1" k3="1"/>
<feColorMatrix type="matrix" values="0 0 0 0 0 0 0 0 0 0 0 0 0 0 0 0 0 0 0.07 0"/>
<feBlend mode="plus-darker" in2="shape" result="effect1_innerShadow_4885_478"/>
<feColorMatrix in="SourceAlpha" type="matrix" values="0 0 0 0 0 0 0 0 0 0 0 0 0 0 0 0 0 0 127 0" result="hardAlpha"/>
<feOffset dy="1"/>
<feGaussianBlur stdDeviation="0.5"/>
<feComposite in2="hardAlpha" operator="arithmetic" k2="-1" k3="1"/>
<feColorMatrix type="matrix" values="0 0 0 0 0 0 0 0 0 0 0 0 0 0 0 0 0 0 0.02 0"/>
<feBlend mode="plus-darker" in2="effect1_innerShadow_4885_478" result="effect2_innerShadow_4885_478"/>
</filter>
<filter id="filter1_ii_4885_478" x="48" y="200" width="144" height="146" filterUnits="userSpaceOnUse" color-interpolation-filters="sRGB">
<feFlood flood-opacity="0" result="BackgroundImageFix"/>
<feBlend mode="normal" in="SourceGraphic" in2="BackgroundImageFix" result="shape"/>
<feColorMatrix in="SourceAlpha" type="matrix" values="0 0 0 0 0 0 0 0 0 0 0 0 0 0 0 0 0 0 127 0" result="hardAlpha"/>
<feOffset dy="2"/>
<feGaussianBlur stdDeviation="16"/>
<feComposite in2="hardAlpha" operator="arithmetic" k2="-1" k3="1"/>
<feColorMatrix type="matrix" values="0 0 0 0 0 0 0 0 0 0 0 0 0 0 0 0 0 0 0.07 0"/>
<feBlend mode="plus-darker" in2="shape" result="effect1_innerShadow_4885_478"/>
<feColorMatrix in="SourceAlpha" type="matrix" values="0 0 0 0 0 0 0 0 0 0 0 0 0 0 0 0 0 0 127 0" result="hardAlpha"/>
<feOffset dy="1"/>
<feGaussianBlur stdDeviation="0.5"/>
<feComposite in2="hardAlpha" operator="arithmetic" k2="-1" k3="1"/>
<feColorMatrix type="matrix" values="0 0 0 0 0 0 0 0 0 0 0 0 0 0 0 0 0 0 0.02 0"/>
<feBlend mode="plus-darker" in2="effect1_innerShadow_4885_478" result="effect2_innerShadow_4885_478"/>
</filter>
<filter id="filter2_ii_4885_478" x="72" y="224" width="96" height="98" filterUnits="userSpaceOnUse" color-interpolation-filters="sRGB">
<feFlood flood-opacity="0" result="BackgroundImageFix"/>
<feBlend mode="normal" in="SourceGraphic" in2="BackgroundImageFix" result="shape"/>
<feColorMatrix in="SourceAlpha" type="matrix" values="0 0 0 0 0 0 0 0 0 0 0 0 0 0 0 0 0 0 127 0" result="hardAlpha"/>
<feOffset dy="2"/>
<feGaussianBlur stdDeviation="16"/>
<feComposite in2="hardAlpha" operator="arithmetic" k2="-1" k3="1"/>
<feColorMatrix type="matrix" values="0 0 0 0 0 0 0 0 0 0 0 0 0 0 0 0 0 0 0.07 0"/>
<feBlend mode="plus-darker" in2="shape" result="effect1_innerShadow_4885_478"/>
<feColorMatrix in="SourceAlpha" type="matrix" values="0 0 0 0 0 0 0 0 0 0 0 0 0 0 0 0 0 0 127 0" result="hardAlpha"/>
<feOffset dy="1"/>
<feGaussianBlur stdDeviation="0.5"/>
<feComposite in2="hardAlpha" operator="arithmetic" k2="-1" k3="1"/>
<feColorMatrix type="matrix" values="0 0 0 0 0 0 0 0 0 0 0 0 0 0 0 0 0 0 0.02 0"/>
<feBlend mode="plus-darker" in2="effect1_innerShadow_4885_478" result="effect2_innerShadow_4885_478"/>
</filter>
<radialGradient id="paint0_radial_4885_478" cx="0" cy="0" r="1" gradientUnits="userSpaceOnUse" gradientTransform="translate(216 608.5) rotate(-180) scale(65.5 115.454)">
<stop offset="0.0885417" stop-color="white" style="stop-color:white;stop-opacity:1;"/>
<stop offset="0.159177" stop-color="#FEFEFE" style="stop-color:#FEFEFE;stop-color:color(display-p3 0.9947 0.9947 0.9947);stop-opacity:1;"/>
<stop offset="0.221106" stop-color="#FAFAFA" style="stop-color:#FAFAFA;stop-color:color(display-p3 0.9791 0.9791 0.9791);stop-opacity:1;"/>
<stop offset="0.275806" stop-color="#F3F3F3" style="stop-color:#F3F3F3;stop-color:color(display-p3 0.9538 0.9538 0.9538);stop-opacity:1;"/>
<stop offset="0.324755" stop-color="#EAEAEA" style="stop-color:#EAEAEA;stop-color:color(display-p3 0.9195 0.9195 0.9195);stop-opacity:1;"/>
<stop offset="0.369431" stop-color="#E0E0E0" style="stop-color:#E0E0E0;stop-color:color(display-p3 0.8767 0.8767 0.8767);stop-opacity:1;"/>
<stop offset="0.411312" stop-color="#D3D3D3" style="stop-color:#D3D3D3;stop-color:color(display-p3 0.8261 0.8261 0.8261);stop-opacity:1;"/>
<stop offset="0.451874" stop-color="#C4C4C4" style="stop-color:#C4C4C4;stop-color:color(display-p3 0.7682 0.7682 0.7682);stop-opacity:1;"/>
<stop offset="0.492597" stop-color="#B3B3B3" style="stop-color:#B3B3B3;stop-color:color(display-p3 0.7036 0.7036 0.7036);stop-opacity:1;"/>
<stop offset="0.534957" stop-color="#A1A1A1" style="stop-color:#A1A1A1;stop-color:color(display-p3 0.6331 0.6331 0.6331);stop-opacity:1;"/>
<stop offset="0.580431" stop-color="#8E8E8E" style="stop-color:#8E8E8E;stop-color:color(display-p3 0.5571 0.5571 0.5571);stop-opacity:1;"/>
<stop offset="0.630499" stop-color="#797979" style="stop-color:#797979;stop-color:color(display-p3 0.4762 0.4762 0.4762);stop-opacity:1;"/>
<stop offset="0.686637" stop-color="#646464" style="stop-color:#646464;stop-color:color(display-p3 0.3912 0.3912 0.3912);stop-opacity:1;"/>
<stop offset="0.750323" stop-color="#4D4D4D" style="stop-color:#4D4D4D;stop-color:color(display-p3 0.3025 0.3025 0.3025);stop-opacity:1;"/>
<stop offset="0.823035" stop-color="#363636" style="stop-color:#363636;stop-color:color(display-p3 0.2108 0.2108 0.2108);stop-opacity:1;"/>
<stop offset="0.90625" stop-color="#1E1E1E" style="stop-color:#1E1E1E;stop-color:color(display-p3 0.1167 0.1167 0.1167);stop-opacity:1;"/>
<stop offset="1" style="stop-color:black;stop-opacity:1;"/>
</radialGradient>
<radialGradient id="paint1_radial_4885_478" cx="0" cy="0" r="1" gradientUnits="userSpaceOnUse" gradientTransform="translate(600 656) rotate(90) scale(192)">
<stop offset="0.0885417" stop-color="white" style="stop-color:white;stop-opacity:1;"/>
<stop offset="0.159177" stop-color="#FEFEFE" style="stop-color:#FEFEFE;stop-color:color(display-p3 0.9947 0.9947 0.9947);stop-opacity:1;"/>
<stop offset="0.221106" stop-color="#FAFAFA" style="stop-color:#FAFAFA;stop-color:color(display-p3 0.9791 0.9791 0.9791);stop-opacity:1;"/>
<stop offset="0.275806" stop-color="#F3F3F3" style="stop-color:#F3F3F3;stop-color:color(display-p3 0.9538 0.9538 0.9538);stop-opacity:1;"/>
<stop offset="0.324755" stop-color="#EAEAEA" style="stop-color:#EAEAEA;stop-color:color(display-p3 0.9195 0.9195 0.9195);stop-opacity:1;"/>
<stop offset="0.369431" stop-color="#E0E0E0" style="stop-color:#E0E0E0;stop-color:color(display-p3 0.8767 0.8767 0.8767);stop-opacity:1;"/>
<stop offset="0.411312" stop-color="#D3D3D3" style="stop-color:#D3D3D3;stop-color:color(display-p3 0.8261 0.8261 0.8261);stop-opacity:1;"/>
<stop offset="0.451874" stop-color="#C4C4C4" style="stop-color:#C4C4C4;stop-color:color(display-p3 0.7682 0.7682 0.7682);stop-opacity:1;"/>
<stop offset="0.492597" stop-color="#B3B3B3" style="stop-color:#B3B3B3;stop-color:color(display-p3 0.7036 0.7036 0.7036);stop-opacity:1;"/>
<stop offset="0.534957" stop-color="#A1A1A1" style="stop-color:#A1A1A1;stop-color:color(display-p3 0.6331 0.6331 0.6331);stop-opacity:1;"/>
<stop offset="0.580431" stop-color="#8E8E8E" style="stop-color:#8E8E8E;stop-color:color(display-p3 0.5571 0.5571 0.5571);stop-opacity:1;"/>
<stop offset="0.630499" stop-color="#797979" style="stop-color:#797979;stop-color:color(display-p3 0.4762 0.4762 0.4762);stop-opacity:1;"/>
<stop offset="0.686637" stop-color="#646464" style="stop-color:#646464;stop-color:color(display-p3 0.3912 0.3912 0.3912);stop-opacity:1;"/>
<stop offset="0.750323" stop-color="#4D4D4D" style="stop-color:#4D4D4D;stop-color:color(display-p3 0.3025 0.3025 0.3025);stop-opacity:1;"/>
<stop offset="0.823035" stop-color="#363636" style="stop-color:#363636;stop-color:color(display-p3 0.2108 0.2108 0.2108);stop-opacity:1;"/>
<stop offset="0.90625" stop-color="#1E1E1E" style="stop-color:#1E1E1E;stop-color:color(display-p3 0.1167 0.1167 0.1167);stop-opacity:1;"/>
<stop offset="1" style="stop-color:black;stop-opacity:1;"/>
</radialGradient>
<linearGradient id="paint2_linear_4885_478" x1="96" y1="0" x2="96" y2="192" gradientUnits="userSpaceOnUse">
<stop offset="0.25" stop-color="white" style="stop-color:white;stop-opacity:1;"/>
<stop offset="0.308948" stop-color="#FDFDFD" style="stop-color:#FDFDFD;stop-color:color(display-p3 0.9916 0.9916 0.9916);stop-opacity:1;"/>
<stop offset="0.356918" stop-color="#F7F7F7" style="stop-color:#F7F7F7;stop-color:color(display-p3 0.9676 0.9676 0.9676);stop-opacity:1;"/>
<stop offset="0.3956" stop-color="#EDEDED" style="stop-color:#EDEDED;stop-color:color(display-p3 0.9296 0.9296 0.9296);stop-opacity:1;"/>
<stop offset="0.426681" stop-color="#E0E0E0" style="stop-color:#E0E0E0;stop-color:color(display-p3 0.8793 0.8793 0.8793);stop-opacity:1;"/>
<stop offset="0.451852" stop-color="#D1D1D1" style="stop-color:#D1D1D1;stop-color:color(display-p3 0.8185 0.8185 0.8185);stop-opacity:1;"/>
<stop offset="0.4728" stop-color="#BFBFBF" style="stop-color:#BFBFBF;stop-color:color(display-p3 0.7488 0.7488 0.7488);stop-opacity:1;"/>
<stop offset="0.491215" stop-color="#ABABAB" style="stop-color:#ABABAB;stop-color:color(display-p3 0.6719 0.6719 0.6719);stop-opacity:1;"/>
<stop offset="0.508785" stop-color="#969696" style="stop-color:#969696;stop-color:color(display-p3 0.5895 0.5895 0.5895);stop-opacity:1;"/>
<stop offset="0.5272" stop-color="#808080" style="stop-color:#808080;stop-color:color(display-p3 0.5032 0.5032 0.5032);stop-opacity:1;"/>
<stop offset="0.548148" stop-color="#6A6A6A" style="stop-color:#6A6A6A;stop-color:color(display-p3 0.4148 0.4148 0.4148);stop-opacity:1;"/>
<stop offset="0.573318" stop-color="#535353" style="stop-color:#535353;stop-color:color(display-p3 0.3260 0.3260 0.3260);stop-opacity:1;"/>
<stop offset="0.6044" stop-color="#3D3D3D" style="stop-color:#3D3D3D;stop-color:color(display-p3 0.2384 0.2384 0.2384);stop-opacity:1;"/>
<stop offset="0.643081" stop-color="#272727" style="stop-color:#272727;stop-color:color(display-p3 0.1537 0.1537 0.1537);stop-opacity:1;"/>
<stop offset="0.691052" stop-color="#131313" style="stop-color:#131313;stop-color:color(display-p3 0.0737 0.0737 0.0737);stop-opacity:1;"/>
<stop offset="0.75" stop-color="#080808" style="stop-color:#080808;stop-color:color(display-p3 0.0300 0.0300 0.0300);stop-opacity:1;"/>
</linearGradient>
<linearGradient id="paint3_linear_4885_478" x1="72" y1="0" x2="72" y2="144" gradientUnits="userSpaceOnUse">
<stop offset="0.25" stop-color="white" style="stop-color:white;stop-opacity:1;"/>
<stop offset="0.308948" stop-color="#FDFDFD" style="stop-color:#FDFDFD;stop-color:color(display-p3 0.9916 0.9916 0.9916);stop-opacity:1;"/>
<stop offset="0.356918" stop-color="#F7F7F7" style="stop-color:#F7F7F7;stop-color:color(display-p3 0.9676 0.9676 0.9676);stop-opacity:1;"/>
<stop offset="0.3956" stop-color="#EDEDED" style="stop-color:#EDEDED;stop-color:color(display-p3 0.9296 0.9296 0.9296);stop-opacity:1;"/>
<stop offset="0.426681" stop-color="#E0E0E0" style="stop-color:#E0E0E0;stop-color:color(display-p3 0.8793 0.8793 0.8793);stop-opacity:1;"/>
<stop offset="0.451852" stop-color="#D1D1D1" style="stop-color:#D1D1D1;stop-color:color(display-p3 0.8185 0.8185 0.8185);stop-opacity:1;"/>
<stop offset="0.4728" stop-color="#BFBFBF" style="stop-color:#BFBFBF;stop-color:color(display-p3 0.7488 0.7488 0.7488);stop-opacity:1;"/>
<stop offset="0.491215" stop-color="#ABABAB" style="stop-color:#ABABAB;stop-color:color(display-p3 0.6719 0.6719 0.6719);stop-opacity:1;"/>
<stop offset="0.508785" stop-color="#969696" style="stop-color:#969696;stop-color:color(display-p3 0.5895 0.5895 0.5895);stop-opacity:1;"/>
<stop offset="0.5272" stop-color="#808080" style="stop-color:#808080;stop-color:color(display-p3 0.5032 0.5032 0.5032);stop-opacity:1;"/>
<stop offset="0.548148" stop-color="#6A6A6A" style="stop-color:#6A6A6A;stop-color:color(display-p3 0.4148 0.4148 0.4148);stop-opacity:1;"/>
<stop offset="0.573318" stop-color="#535353" style="stop-color:#535353;stop-color:color(display-p3 0.3260 0.3260 0.3260);stop-opacity:1;"/>
<stop offset="0.6044" stop-color="#3D3D3D" style="stop-color:#3D3D3D;stop-color:color(display-p3 0.2384 0.2384 0.2384);stop-opacity:1;"/>
<stop offset="0.643081" stop-color="#272727" style="stop-color:#272727;stop-color:color(display-p3 0.1537 0.1537 0.1537);stop-opacity:1;"/>
<stop offset="0.691052" stop-color="#131313" style="stop-color:#131313;stop-color:color(display-p3 0.0737 0.0737 0.0737);stop-opacity:1;"/>
<stop offset="0.75" stop-color="#080808" style="stop-color:#080808;stop-color:color(display-p3 0.0300 0.0300 0.0300);stop-opacity:1;"/>
</linearGradient>
<linearGradient id="paint4_linear_4885_478" x1="48" y1="0" x2="48" y2="96" gradientUnits="userSpaceOnUse">
<stop offset="0.25" stop-color="white" style="stop-color:white;stop-opacity:1;"/>
<stop offset="0.308948" stop-color="#FDFDFD" style="stop-color:#FDFDFD;stop-color:color(display-p3 0.9916 0.9916 0.9916);stop-opacity:1;"/>
<stop offset="0.356918" stop-color="#F7F7F7" style="stop-color:#F7F7F7;stop-color:color(display-p3 0.9676 0.9676 0.9676);stop-opacity:1;"/>
<stop offset="0.3956" stop-color="#EDEDED" style="stop-color:#EDEDED;stop-color:color(display-p3 0.9296 0.9296 0.9296);stop-opacity:1;"/>
<stop offset="0.426681" stop-color="#E0E0E0" style="stop-color:#E0E0E0;stop-color:color(display-p3 0.8793 0.8793 0.8793);stop-opacity:1;"/>
<stop offset="0.451852" stop-color="#D1D1D1" style="stop-color:#D1D1D1;stop-color:color(display-p3 0.8185 0.8185 0.8185);stop-opacity:1;"/>
<stop offset="0.4728" stop-color="#BFBFBF" style="stop-color:#BFBFBF;stop-color:color(display-p3 0.7488 0.7488 0.7488);stop-opacity:1;"/>
<stop offset="0.491215" stop-color="#ABABAB" style="stop-color:#ABABAB;stop-color:color(display-p3 0.6719 0.6719 0.6719);stop-opacity:1;"/>
<stop offset="0.508785" stop-color="#969696" style="stop-color:#969696;stop-color:color(display-p3 0.5895 0.5895 0.5895);stop-opacity:1;"/>
<stop offset="0.5272" stop-color="#808080" style="stop-color:#808080;stop-color:color(display-p3 0.5032 0.5032 0.5032);stop-opacity:1;"/>
<stop offset="0.548148" stop-color="#6A6A6A" style="stop-color:#6A6A6A;stop-color:color(display-p3 0.4148 0.4148 0.4148);stop-opacity:1;"/>
<stop offset="0.573318" stop-color="#535353" style="stop-color:#535353;stop-color:color(display-p3 0.3260 0.3260 0.3260);stop-opacity:1;"/>
<stop offset="0.6044" stop-color="#3D3D3D" style="stop-color:#3D3D3D;stop-color:color(display-p3 0.2384 0.2384 0.2384);stop-opacity:1;"/>
<stop offset="0.643081" stop-color="#272727" style="stop-color:#272727;stop-color:color(display-p3 0.1537 0.1537 0.1537);stop-opacity:1;"/>
<stop offset="0.691052" stop-color="#131313" style="stop-color:#131313;stop-color:color(display-p3 0.0737 0.0737 0.0737);stop-opacity:1;"/>
<stop offset="0.75" stop-color="#080808" style="stop-color:#080808;stop-color:color(display-p3 0.0300 0.0300 0.0300);stop-opacity:1;"/>
</linearGradient>
<clipPath id="clip0_4885_478">
<rect x="24" y="176" width="288" height="192" rx="96" fill="white" style="fill:white;fill-opacity:1;"/>
</clipPath>
<clipPath id="clip1_4885_478">
<rect x="24" y="176" width="288" height="192" rx="96" fill="white" style="fill:white;fill-opacity:1;"/>
</clipPath>
<clipPath id="clip2_4885_478">
<rect width="384" height="384" fill="white" style="fill:white;fill-opacity:1;" transform="matrix(-1 0 0 -1 408 464)"/>
</clipPath>
<clipPath id="clip3_4885_478">
<rect width="192" height="192" rx="96" transform="matrix(1 0 0 -1 24 368)" fill="white" style="fill:white;fill-opacity:1;"/>
</clipPath>
<clipPath id="clip4_4885_478">
<rect width="144" height="144" rx="72" transform="matrix(1 0 0 -1 48 344)" fill="white" style="fill:white;fill-opacity:1;"/>
</clipPath>
<clipPath id="clip5_4885_478">
<rect width="96" height="96" rx="48" transform="matrix(1 0 0 -1 72 320)" fill="white" style="fill:white;fill-opacity:1;"/>
</clipPath>
</defs>
</svg>
